<svg width="30" height="24" viewBox="0 0 30 24" fill="none" xmlns="http://www.w3.org/2000/svg">
<path d="M8.71301 0H27.9994C28.7358 0 29.3327 0.59696 29.3327 1.33333V22.6667C29.3327 23.4031 28.7358 24 27.9994 24H8.71301C8.26719 24 7.85088 23.7772 7.6036 23.4063L0.492488 12.7396C0.19391 12.2917 0.19391 11.7083 0.492488 11.2604L7.6036 0.593733C7.85088 0.2228 8.26719 0 8.71301 0ZM9.42658 2.66667L3.20435 12L9.42658 21.3333H26.6661V2.66667H9.42658ZM17.3327 10.1144L21.1039 6.34315L22.9897 8.22876L19.2183 12L22.9897 15.7712L21.1039 17.6568L17.3327 13.8856L13.5615 17.6568L11.6759 15.7712L15.4471 12L11.6759 8.22876L13.5615 6.34315L17.3327 10.1144Z" fill="#6C757D"/>
</svg>
