<svg width="33" height="32" viewBox="0 0 33 32" fill="none" xmlns="http://www.w3.org/2000/svg">
<path d="M16.5003 2.664C23.8657 2.664 29.8363 8.63467 29.8363 16C29.8363 23.364 23.8657 29.3333 16.5003 29.3333C9.13499 29.3347 3.16699 23.364 3.16699 16C3.16566 8.63467 9.13499 2.664 16.5003 2.664ZM16.5003 4.664C15.0014 4.64774 13.5141 4.92893 12.1246 5.4913C10.7351 6.05366 9.4709 6.88603 8.40521 7.94022C7.33952 8.99442 6.49349 10.2495 5.91609 11.6329C5.33869 13.0162 5.04139 14.5003 5.04139 15.9993C5.04139 17.4983 5.33869 18.9825 5.91609 20.3658C6.49349 21.7492 7.33952 23.0042 8.40521 24.0584C9.4709 25.1126 10.7351 25.945 12.1246 26.5074C13.5141 27.0697 15.0014 27.3509 16.5003 27.3347C19.4853 27.3023 22.3371 26.0938 24.4365 23.9715C26.5359 21.8492 27.7134 18.9845 27.7134 15.9993C27.7134 13.0141 26.5359 10.1494 24.4365 8.02716C22.3371 5.90489 19.4853 4.69638 16.5003 4.664ZM16.5003 17.9973C18.675 17.9973 20.7137 18.8693 22.2083 20.3907C22.3055 20.4832 22.3831 20.5943 22.4364 20.7175C22.4897 20.8406 22.5178 20.9732 22.5188 21.1074C22.5198 21.2415 22.4938 21.3746 22.4423 21.4985C22.3909 21.6224 22.315 21.7347 22.2192 21.8287C22.1234 21.9227 22.0097 21.9964 21.8849 22.0455C21.76 22.0946 21.6265 22.1181 21.4924 22.1146C21.3582 22.111 21.2262 22.0805 21.1041 22.0249C20.982 21.9692 20.8723 21.8896 20.7817 21.7907C20.2238 21.2214 19.5579 20.7694 18.8229 20.4612C18.0879 20.153 17.2987 19.9948 16.5017 19.996C15.7025 19.9946 14.9112 20.1534 14.1745 20.4631C13.4378 20.7727 12.7706 21.2268 12.2123 21.7987C12.1204 21.8925 12.0109 21.9673 11.89 22.0189C11.7692 22.0704 11.6394 22.0976 11.508 22.099C11.3767 22.1003 11.2463 22.0758 11.1244 22.0268C11.0025 21.9778 10.8915 21.9053 10.7977 21.8133C10.7038 21.7214 10.629 21.6119 10.5775 21.4911C10.5259 21.3702 10.4987 21.2404 10.4973 21.109C10.496 20.9777 10.5205 20.8473 10.5695 20.7254C10.6185 20.6036 10.6911 20.4925 10.783 20.3987C11.5275 19.6371 12.4169 19.0322 13.3988 18.6198C14.3807 18.2074 15.4353 17.9958 16.5003 17.9973ZM12.5003 11.6667C12.7231 11.6604 12.9448 11.6988 13.1525 11.7797C13.3601 11.8606 13.5494 11.9823 13.7092 12.1376C13.869 12.2929 13.996 12.4787 14.0827 12.684C14.1694 12.8893 14.2141 13.1098 14.2141 13.3327C14.2141 13.5555 14.1694 13.7761 14.0827 13.9813C13.996 14.1866 13.869 14.3724 13.7092 14.5277C13.5494 14.6831 13.3601 14.8048 13.1525 14.8857C12.9448 14.9665 12.7231 15.005 12.5003 14.9987C12.0666 14.9864 11.6548 14.8055 11.3524 14.4944C11.05 14.1833 10.8808 13.7665 10.8808 13.3327C10.8808 12.8988 11.05 12.482 11.3524 12.1709C11.6548 11.8598 12.0666 11.6789 12.5003 11.6667ZM20.5003 11.6667C20.7231 11.6604 20.9448 11.6988 21.1525 11.7797C21.3601 11.8606 21.5494 11.9823 21.7092 12.1376C21.869 12.2929 21.996 12.4787 22.0827 12.684C22.1694 12.8893 22.2141 13.1098 22.2141 13.3327C22.2141 13.5555 22.1694 13.7761 22.0827 13.9813C21.996 14.1866 21.869 14.3724 21.7092 14.5277C21.5494 14.6831 21.3601 14.8048 21.1525 14.8857C20.9448 14.9665 20.7231 15.005 20.5003 14.9987C20.0666 14.9864 19.6548 14.8055 19.3524 14.4944C19.05 14.1833 18.8808 13.7665 18.8808 13.3327C18.8808 12.8988 19.05 12.482 19.3524 12.1709C19.6548 11.8598 20.0666 11.6789 20.5003 11.6667Z" fill="#6C757D"/>
</svg>
