<svg width="16" height="16" viewBox="0 0 16 16" fill="none" xmlns="http://www.w3.org/2000/svg">
<path d="M7.96227 16C5.93094 16 4.16061 15.3367 2.65127 14.01C1.14194 12.6847 0.268273 11.0147 0.0302734 9H1.04127C1.31327 10.72 2.09694 12.15 3.39227 13.29C4.68894 14.43 6.21227 15 7.96227 15C9.91227 15 11.5663 14.3207 12.9243 12.962C14.2823 11.6033 14.9616 9.94933 14.9623 8C14.9623 6.05 14.2829 4.39567 12.9243 3.037C11.5656 1.67833 9.91161 0.999333 7.96227 1C6.92761 1 5.95494 1.21867 5.04427 1.656C4.13427 2.09333 3.33094 2.69533 2.63427 3.462H5.11527V4.462H0.962273V0.308H1.96227V2.696C2.73561 1.84733 3.64161 1.186 4.68027 0.712C5.71894 0.237333 6.81294 0 7.96227 0C9.07094 0 10.1103 0.208667 11.0803 0.626C12.0503 1.04333 12.8976 1.61433 13.6223 2.339C14.3469 3.06367 14.9183 3.91133 15.3363 4.882C15.7536 5.852 15.9623 6.89133 15.9623 8C15.9623 9.10867 15.7536 10.148 15.3363 11.118C14.9189 12.088 14.3476 12.9357 13.6223 13.661C12.8976 14.3857 12.0503 14.9567 11.0803 15.374C10.1103 15.7913 9.07094 16 7.96227 16ZM11.1653 11.854L7.51927 8.208V3H8.51927V7.792L11.8733 11.146L11.1653 11.854Z" fill="#6C757D"/>
</svg>
