<svg width="17" height="16" viewBox="0 0 17 16" fill="none" xmlns="http://www.w3.org/2000/svg">
<path d="M10.6388 3.22343L12.5007 3.99999L13.2769 5.86187C13.2977 5.90347 13.3296 5.93847 13.3691 5.96293C13.4086 5.98739 13.4542 6.00035 13.5007 6.00035C13.5472 6.00035 13.5927 5.98739 13.6323 5.96293C13.6718 5.93847 13.7037 5.90347 13.7244 5.86187L14.5007 3.99999L16.3626 3.22343C16.4041 3.20266 16.439 3.17075 16.4634 3.13126C16.4878 3.09176 16.5007 3.04626 16.5007 2.99984C16.5007 2.95341 16.4878 2.90791 16.4634 2.86842C16.439 2.82892 16.4041 2.79701 16.3626 2.77624L14.5007 1.99999L13.7244 0.138117C13.7037 0.0965154 13.6718 0.061518 13.6323 0.0370554C13.5927 0.0125928 13.5472 -0.000366211 13.5007 -0.000366211C13.4542 -0.000366211 13.4086 0.0125928 13.3691 0.0370554C13.3296 0.061518 13.2977 0.0965154 13.2769 0.138117L12.5007 1.99999L10.6388 2.77624C10.5973 2.79701 10.5624 2.82892 10.538 2.86842C10.5136 2.90791 10.5006 2.95341 10.5006 2.99984C10.5006 3.04626 10.5136 3.09176 10.538 3.13126C10.5624 3.17075 10.5973 3.20266 10.6388 3.22343ZM16.3626 12.7762L14.5007 12L13.7244 10.1381C13.7037 10.0965 13.6718 10.0615 13.6323 10.0371C13.5927 10.0126 13.5472 9.99963 13.5007 9.99963C13.4542 9.99963 13.4086 10.0126 13.3691 10.0371C13.3296 10.0615 13.2977 10.0965 13.2769 10.1381L12.5007 12L10.6388 12.7762C10.5972 12.797 10.5622 12.8289 10.5377 12.8684C10.5133 12.9079 10.5003 12.9535 10.5003 13C10.5003 13.0465 10.5133 13.092 10.5377 13.1316C10.5622 13.1711 10.5972 13.203 10.6388 13.2237L12.5007 14L13.2769 15.8619C13.2977 15.9035 13.3296 15.9385 13.3691 15.9629C13.4086 15.9874 13.4542 16.0003 13.5007 16.0003C13.5472 16.0003 13.5927 15.9874 13.6323 15.9629C13.6718 15.9385 13.7037 15.9035 13.7244 15.8619L14.5007 14L16.3626 13.2237C16.4042 13.203 16.4392 13.1711 16.4636 13.1316C16.4881 13.092 16.501 13.0465 16.501 13C16.501 12.9535 16.4881 12.9079 16.4636 12.8684C16.4392 12.8289 16.4042 12.797 16.3626 12.7762ZM12.5007 7.98874C12.5006 7.89584 12.4747 7.80479 12.4259 7.72573C12.3772 7.64667 12.3074 7.58269 12.2244 7.54093L8.70662 5.77874L6.94787 2.25468C6.77787 1.91499 6.22318 1.91499 6.0535 2.25468L4.29475 5.77874L0.776933 7.54093C0.693482 7.5823 0.623247 7.64616 0.574144 7.72531C0.525041 7.80446 0.499023 7.89575 0.499023 7.9889C0.499023 8.08204 0.525041 8.17333 0.574144 8.25248C0.623247 8.33163 0.693482 8.39549 0.776933 8.43687L4.29475 10.1991L6.0535 13.7231C6.09503 13.8062 6.15886 13.876 6.23784 13.9248C6.31682 13.9736 6.40784 13.9995 6.50068 13.9995C6.59353 13.9995 6.68454 13.9736 6.76352 13.9248C6.84251 13.876 6.90634 13.8062 6.94787 13.7231L8.70662 10.1991L12.2244 8.43749C12.3075 8.39563 12.3774 8.3315 12.4261 8.25226C12.4749 8.17302 12.5007 8.08179 12.5007 7.98874Z" fill="white"/>
</svg>
