<svg width="24" height="24" viewBox="0 0 24 24" fill="none" xmlns="http://www.w3.org/2000/svg">
<path d="M19.4846 20.154L13.2226 13.892C12.7226 14.318 12.1476 14.6477 11.4976 14.881C10.8476 15.1143 10.1943 15.231 9.53762 15.231C7.93628 15.231 6.58095 14.6767 5.47162 13.568C4.36228 12.4587 3.80762 11.1037 3.80762 9.50301C3.80762 7.90235 4.36162 6.54668 5.46962 5.43601C6.57828 4.32468 7.93295 3.76901 9.53362 3.76901C11.135 3.76901 12.491 4.32368 13.6016 5.43301C14.7123 6.54235 15.2676 7.89801 15.2676 9.50001C15.2676 10.1947 15.1446 10.867 14.8986 11.517C14.6519 12.167 14.3286 12.723 13.9286 13.185L20.1906 19.446L19.4836 20.154H19.4846ZM9.53762 14.23C10.8643 14.23 11.9846 13.7733 12.8986 12.86C13.8119 11.9467 14.2686 10.8263 14.2686 9.49901C14.2686 8.17235 13.8119 7.05235 12.8986 6.13901C11.9853 5.22568 10.8653 4.76901 9.53862 4.76901C8.21195 4.76901 7.09162 5.22568 6.17762 6.13901C5.26428 7.05235 4.80762 8.17235 4.80762 9.49901C4.80762 10.8257 5.26428 11.9457 6.17762 12.859C7.09095 13.7723 8.21095 14.23 9.53762 14.23Z" fill="white"/>
</svg>
