<svg width="18" height="18" viewBox="0 0 18 18" fill="none" xmlns="http://www.w3.org/2000/svg">
<path d="M16.4846 17.154L10.2226 10.892C9.72262 11.318 9.14762 11.6477 8.49762 11.881C7.84762 12.1143 7.19428 12.231 6.53762 12.231C4.93628 12.231 3.58095 11.6767 2.47162 10.568C1.36228 9.45868 0.807617 8.10368 0.807617 6.50301C0.807617 4.90235 1.36162 3.54668 2.46962 2.43601C3.57828 1.32468 4.93295 0.769012 6.53362 0.769012C8.13495 0.769012 9.49095 1.32368 10.6016 2.43301C11.7123 3.54235 12.2676 4.89801 12.2676 6.50001C12.2676 7.19468 12.1446 7.86701 11.8986 8.51701C11.6519 9.16701 11.3286 9.72301 10.9286 10.185L17.1906 16.446L16.4836 17.154H16.4846ZM6.53762 11.23C7.86428 11.23 8.98462 10.7733 9.89862 9.86001C10.8119 8.94668 11.2686 7.82635 11.2686 6.49901C11.2686 5.17235 10.8119 4.05235 9.89862 3.13901C8.98528 2.22568 7.86528 1.76901 6.53862 1.76901C5.21195 1.76901 4.09162 2.22568 3.17762 3.13901C2.26428 4.05235 1.80762 5.17235 1.80762 6.49901C1.80762 7.82568 2.26428 8.94568 3.17762 9.85901C4.09095 10.7723 5.21095 11.23 6.53762 11.23Z" fill="white"/>
</svg>
