<svg width="24" height="24" viewBox="0 0 24 24" fill="none" xmlns="http://www.w3.org/2000/svg">
<path d="M13.7678 13.7678C13.2989 14.2366 12.663 14.5 12 14.5C11.337 14.5 10.7011 14.2366 10.2322 13.7678C9.76339 13.2989 9.5 12.663 9.5 12C9.5 11.337 9.76339 10.7011 10.2322 10.2322C10.7011 9.76339 11.337 9.5 12 9.5C12.663 9.5 13.2989 9.76339 13.7678 10.2322C14.2366 10.7011 14.5 11.337 14.5 12C14.5 12.663 14.2366 13.2989 13.7678 13.7678Z" stroke="#6C757D"/>
<path d="M13.0607 2.93934C12.7794 2.65804 12.3978 2.5 12 2.5C11.6022 2.5 11.2206 2.65804 10.9393 2.93934C10.658 3.22064 10.5 3.60217 10.5 4V4.64985C9.06204 4.94372 7.73831 5.6537 6.69601 6.69601C5.6537 7.73831 4.94372 9.06204 4.64985 10.5H4C3.60217 10.5 3.22064 10.658 2.93934 10.9393C2.65804 11.2206 2.5 11.6022 2.5 12C2.5 12.3978 2.65804 12.7794 2.93934 13.0607C3.22064 13.342 3.60217 13.5 4 13.5H4.64981C4.94356 14.938 5.6535 16.2618 6.69583 17.3042C7.73817 18.3465 9.06197 19.0564 10.5 19.3502V20C10.5 20.3978 10.658 20.7794 10.9393 21.0607C11.2206 21.342 11.6022 21.5 12 21.5C12.3978 21.5 12.7794 21.342 13.0607 21.0607C13.342 20.7794 13.5 20.3978 13.5 20V19.3502C14.938 19.0564 16.2618 18.3465 17.3042 17.3042C18.3465 16.2618 19.0564 14.938 19.3502 13.5H20C20.3978 13.5 20.7794 13.342 21.0607 13.0607C21.342 12.7794 21.5 12.3978 21.5 12C21.5 11.6022 21.342 11.2206 21.0607 10.9393C20.7794 10.658 20.3978 10.5 20 10.5H19.3502C19.0564 9.06197 18.3465 7.73817 17.3042 6.69583C16.2618 5.6535 14.938 4.94356 13.5 4.64981V4C13.5 3.60217 13.342 3.22064 13.0607 2.93934ZM7.5 12C7.5 10.8065 7.97411 9.66193 8.81802 8.81802C9.66193 7.97411 10.8065 7.5 12 7.5C13.1935 7.5 14.3381 7.97411 15.182 8.81802C16.0259 9.66193 16.5 10.8065 16.5 12C16.5 13.1935 16.0259 14.3381 15.182 15.182C14.3381 16.0259 13.1935 16.5 12 16.5C10.8065 16.5 9.66193 16.0259 8.81802 15.182C7.97411 14.3381 7.5 13.1935 7.5 12Z" stroke="#6C757D"/>
</svg>
